<svg width="92" height="100" viewBox="0 0 92 100" fill="none" xmlns="http://www.w3.org/2000/svg">
<path d="M42.1843 98.3472L42.1289 98.2975L42.0668 98.2566L39.9064 96.8333H51.9829L49.821 98.2564L49.7574 98.2983L49.7008 98.3493C49.2712 98.7371 48.5809 99 47.8083 99H44.0833C43.3116 99 42.6196 98.7375 42.1843 98.3472ZM45.0768 45.5708L44.7332 46.8333H46.0417H54.0719L49.8535 63.625H44.6485L46.99 54.413L47.3068 53.1667H46.0208H37.8862L42.3534 36.2667H47.6082L45.0768 45.5708ZM55.4958 90.6667H36.5042C35.9052 90.6667 35.4208 90.1839 35.4208 89.5833C35.4208 88.9856 35.9065 88.5 36.5042 88.5H55.4958C56.0936 88.5 56.5792 88.9856 56.5792 89.5833C56.5792 90.1839 56.0949 90.6667 55.4958 90.6667ZM35.1155 61.5827C38.3087 67.5081 41.4409 74.206 41.7476 82.3333H35.3721C35.0858 74.2437 31.7441 68.4177 28.5327 62.9596C28.4691 62.8515 28.4056 62.7436 28.3422 62.6358C25.0556 57.0525 22 51.8616 22 44.775C22 30.6875 33.268 21.7264 46.2711 21.8333C59.4969 22.0483 70.0083 31.2219 70.0083 44.7792C70.0083 51.8557 66.9862 56.9512 63.718 62.4616C63.6424 62.5891 63.5666 62.7168 63.4908 62.8448C60.2773 68.2668 56.9341 74.0841 56.6337 82.3333H50.2614C50.7632 73.2868 53.9206 66.5557 57.0572 60.8594C57.5586 59.949 58.0647 59.0561 58.561 58.1804C59.6615 56.2389 60.7141 54.3819 61.5604 52.6057C62.7987 50.0071 63.6708 47.4387 63.6708 44.7708C63.6708 34.3743 55.4844 28.1667 46.0375 28.1667C41.7322 28.1667 37.3207 29.5087 33.9663 32.2754C30.5877 35.0622 28.3333 39.2555 28.3333 44.8083C28.3333 47.4702 29.2354 50.1533 30.5048 52.8883C31.411 54.8407 32.5404 56.8904 33.7136 59.0196C34.1778 59.8619 34.6488 60.7166 35.1155 61.5827ZM85.5484 64.5807L76.58 60.5145C77.4892 58.6077 78.2739 56.6506 78.8907 54.603L88.1676 58.8101L85.5484 64.5807ZM6.45152 64.5804L3.83243 58.8102L13.1079 54.6053C13.7192 56.6709 14.4905 58.5971 15.4047 60.5183L6.45152 64.5804ZM90.8333 44.8333H80.3376C80.3419 42.7136 80.1547 40.5883 79.7722 38.5H90.8333V44.8333ZM12.2265 38.5C11.8482 40.5897 11.6635 42.7129 11.6649 44.8333H1.16667V38.5H12.2265ZM72.6644 23.389L81.2967 17.2648L84.9638 22.4299L76.2738 28.5944C75.2729 26.7778 74.0715 25.0398 72.6644 23.389ZM10.7037 17.265L19.3307 23.3845C17.9417 25.0134 16.7431 26.7471 15.7241 28.5915L7.03998 22.4297L10.7037 17.265ZM69.4317 7.42921L64.8376 16.742C63.0369 15.6393 61.1333 14.7023 59.1596 13.941L63.7543 4.62692L69.4317 7.42921ZM32.8358 13.9317C30.8641 14.69 28.958 15.6246 27.1538 16.7294L22.5644 7.42934L28.2456 4.62672L32.8358 13.9317ZM42.8333 11.6367V1H49.1667V11.6463C47.0616 11.4605 44.9941 11.452 42.8333 11.6367Z" stroke="#170217" stroke-width="2"/>
</svg>
