<svg fill="none" height="48" viewBox="0 0 48 48" width="48" xmlns="http://www.w3.org/2000/svg"><path d="m29.334 24c0 2.946-2.388 5.334-5.334 5.334s-5.334-2.386-5.334-5.334c0-2.946 2.388-5.334 5.334-5.334s5.334 2.388 5.334 5.334zm7.692-6.464c.076 1.686.092 2.192.092 6.464s-.016 4.778-.092 6.466c-.2 4.3-2.218 6.362-6.558 6.558-1.688.076-2.194.094-6.468.094-4.272 0-4.78-.016-6.464-.092-4.348-.198-6.362-2.264-6.558-6.558-.078-1.69-.096-2.196-.096-6.468s.018-4.778.094-6.464c.198-4.304 2.218-6.362 6.558-6.558 1.688-.078 2.194-.094 6.466-.094s4.78.016 6.466.092c4.336.198 6.36 2.256 6.56 6.56zm-4.81 6.464c0-4.538-3.68-8.216-8.216-8.216-4.538 0-8.216 3.678-8.216 8.216s3.68 8.216 8.216 8.216c4.538 0 8.216-3.678 8.216-8.216zm2.244-8.54c0-1.06-.86-1.92-1.92-1.92s-1.92.86-1.92 1.92.86 1.92 1.92 1.92c1.062 0 1.92-.86 1.92-1.92zm13.54-15.46v48h-48v-48zm-8 24c0-4.344-.018-4.89-.096-6.596-.262-5.804-3.49-9.04-9.306-9.306-1.708-.08-2.252-.098-6.598-.098s-4.888.018-6.596.096c-5.812.266-9.04 3.49-9.308 9.306-.078 1.708-.096 2.254-.096 6.598 0 4.346.018 4.89.096 6.596.268 5.812 3.492 9.042 9.308 9.308 1.708.078 2.25.096 6.596.096s4.89-.018 6.598-.096c5.804-.266 9.044-3.49 9.306-9.308.078-1.706.096-2.25.096-6.596z" fill="#2ac9ff"/></svg>