<svg width="100" height="92" viewBox="0 0 100 92" fill="none" xmlns="http://www.w3.org/2000/svg">
<path d="M95.8333 76.1667H96.8333V75.1667V37.5667V36.5667H95.8333H66.6667H65.6667V37.5667V75.1667V76.1667H66.6667H95.8333ZM8.33333 63.6667H53.1667V70H1V1.16669H86.5V15.8334H80.1667V8.50002V7.50002H79.1667H8.33333H7.33333V8.50002V62.6667V63.6667H8.33333ZM95 26.1667C96.0592 26.1667 97.0758 26.5859 97.8302 27.3361C98.5806 28.0906 99 29.1073 99 30.1667V86.8334C99 87.8926 98.5807 88.9093 97.8304 89.6638C97.0759 90.4141 96.0593 90.8334 95 90.8334H67.5C66.4407 90.8334 65.4241 90.4141 64.6696 89.6638C63.9193 88.9093 63.5 87.8926 63.5 86.8334V30.1667C63.5 29.1074 63.9193 28.0908 64.6696 27.3363C65.4241 26.586 66.4407 26.1667 67.5 26.1667H95ZM53.1667 90.8334H23.0227L32.1192 80.3334H53.1667V90.8334ZM76.0833 83.5C76.0833 86.3517 78.3929 88.6667 81.25 88.6667C84.1036 88.6667 86.4125 86.351 86.4125 83.5C86.4125 80.649 84.1036 78.3334 81.25 78.3334C78.3929 78.3334 76.0833 80.6484 76.0833 83.5ZM85.4167 34.5C87.1189 34.5 88.5 33.119 88.5 31.4167C88.5 29.7144 87.1189 28.3334 85.4167 28.3334H77.0833C75.381 28.3334 74 29.7144 74 31.4167C74 33.119 75.381 34.5 77.0833 34.5H85.4167Z" stroke="#170217" stroke-width="2"/>
</svg>
