<svg width="48" height="48" viewBox="0 0 48 48" fill="none" xmlns="http://www.w3.org/2000/svg">
<g clip-path="url(#clip0_13_109)">
<rect width="48" height="48" fill="#FF00EA"/>
<path d="M34.6377 14.6298C34.4274 14.5217 34.2227 14.4031 34.0244 14.2746C33.4476 13.8952 32.9188 13.4481 32.4493 12.943C31.2747 11.6055 30.836 10.2487 30.6744 9.29871H30.6809C30.5459 8.51018 30.6017 8 30.6101 8H25.26V28.5868C25.26 28.8633 25.26 29.1364 25.2483 29.4064C25.2483 29.44 25.2451 29.4709 25.2431 29.5071C25.2431 29.522 25.2431 29.5375 25.2399 29.553C25.2399 29.5568 25.2399 29.5607 25.2399 29.5646C25.1835 30.3032 24.9455 31.0168 24.547 31.6425C24.1484 32.2681 23.6014 32.7867 22.9542 33.1527C22.2796 33.5346 21.5166 33.7349 20.7405 33.7339C18.2478 33.7339 16.2276 31.7112 16.2276 29.2133C16.2276 26.7153 18.2478 24.6927 20.7405 24.6927C21.2124 24.6922 21.6813 24.7661 22.13 24.9116L22.1365 19.4907C20.7745 19.3157 19.3909 19.4234 18.0728 19.8071C16.7548 20.1908 15.531 20.8421 14.4786 21.72C13.5564 22.5174 12.7812 23.4687 12.1877 24.5312C11.9619 24.9187 11.1097 26.4757 11.0066 29.0027C10.9417 30.4371 11.3745 31.9231 11.5809 32.5372V32.5501C11.7107 32.9118 12.2137 34.1459 13.0333 35.1863C13.6942 36.0208 14.4751 36.7539 15.3508 37.362V37.3491L15.3638 37.362C17.9538 39.1134 20.8255 38.9985 20.8255 38.9985C21.3227 38.9784 22.9879 38.9985 24.879 38.1066C26.9765 37.1179 28.1706 35.6448 28.1706 35.6448C28.9335 34.7646 29.5401 33.7616 29.9644 32.6786C30.4485 31.4122 30.6101 29.8933 30.6101 29.2862V18.3645C30.675 18.4032 31.5395 18.9722 31.5395 18.9722C31.5395 18.9722 32.7848 19.7665 34.7279 20.2838C36.1219 20.6519 38 20.7294 38 20.7294V15.4441C37.3419 15.5152 36.0057 15.3085 34.6377 14.6298Z" fill="#170217"/>
</g>
<defs>
<clipPath id="clip0_13_109">
<rect width="48" height="48" fill="white"/>
</clipPath>
</defs>
</svg>
